# xmcd
#
# Track frame offsets:
#	150
#	18128
#	31154
#	49160
#	64910
#	76043
#	87189
#	106637
#	121815
#	136866
#	154855
#	167351
#	179907
#	197475
#	212284
#	225460
#	236624
#	251349
#	264135
#	281563
#	297949
#
# Disc length: 4165 seconds
#
# Revision: 0
# Processed by: cddbd v1.5.2PL0 Copyright (c) Steve Scherf et al.
# Submitted via: EasyCDDAExtractor 16.0.6.1
#
DISCID=04104315
DTITLE=Γαλάνη Δήμητρα - Οι μεγαλύτερς επιτυχίες της-Δ. Γαλάνη
DYEAR=1987
DGENRE=Ελαφρολαϊκή
TTITLE0=Ήταν μιά φορά κι έναν καιρό [Γ. Χατζηνάσιου-Χρ. Στύππα]
TTITLE1=Σ' όποιον αρέσουμε [Γ. Χατζηνάσιου-Λ. Νικολακοπούλου]
TTITLE2=Συνάντηση [B. Lauzi-R. Carlos-Λ. Χαλκιαδάκη]
TTITLE3=Ζω [Γ. Χατζηνάσιου-Κ. Τριπολίτη]
TTITLE4=Μ' αγαπούσες [Αντ. Βαρδή-Π. Φαλάρα]
TTITLE5=Κλείσε το φως [Στ. Κραουνάκη-Λ. Νικολακοπούλου]
TTITLE6=Όταν τραγουδάω [Χρ. Νικολόπουλου-Κ. Κινδύνη]
TTITLE7=Ακρογιαλιές, δειλινά [Β. Τσιτσάνη]
TTITLE8=Το γρανάζι [Γ. Χατζηνάσιου-Κ. Τριπολίτη]
TTITLE9=Σαν με κοιτάς [Γ. Σπανού-Α. Αλεξόπουλου]
TTITLE10=The man i love [G. Gershwin-Ira  Gershwin]
TTITLE11=Κάποιο τραίνο [Δ. Μούτση-Ν. Γκάτσου]
TTITLE12=Πάντα εσύ [Canfora-Σ. Παπά]
TTITLE13=Αχ ουρανέ [Μ. Χατζιδάκι-Ν. Γκάτσου]
TTITLE14=Αγάπη πού 'γινες [Μ. Χατζιδάκι]
TTITLE15=Te ador [παραδοσιακό]
TTITLE16=Μ' αυτόν τον έρωτα [Γ. Χατζηνάσιου-Λ. Νικολακοπούλου]
TTITLE17=Κοίτα πράματα [Γ. Χατζηνάσιου-Κ. Τριπολίτη]
TTITLE18=Κουτσή κιθάρα [Μ. Λοΐζου-Λ. Παπαδόπουλου]
TTITLE19=Θα σ' αγαπώ [Γ. Χατζηνάσιου-Γ. Καλαμίτση]
TTITLE20=Ατομική μου ενέργεια [Θ. Μικρούτσικου]
EXTD=
EXTT0=
EXTT1=
EXTT2=
EXTT3=
EXTT4=
EXTT5=
EXTT6=
EXTT7=
EXTT8=
EXTT9=
EXTT10=
EXTT11=
EXTT12=
EXTT13=
EXTT14=
EXTT15=
EXTT16=
EXTT17=
EXTT18=
EXTT19=
EXTT20=
PLAYORDER=
